<?xml version="1.0" encoding="UTF-8"?>
<svg id="Layer_1" data-name="Layer 1" xmlns="http://www.w3.org/2000/svg" viewBox="0 0 209 114">
  <defs>
    <style>
      .cls-1 {
        fill: #fff;
      }

      .cls-2 {
        fill: #cf2329;
      }
    </style>
  </defs>
  <polygon class="cls-2" points="0 0 0 114 208.74 114 151.99 57.25 208.94 .31 209 .37 209 0 0 0"/>
  <polygon class="cls-1" points="65.41 22.78 72.7 22.78 84.3 37.65 84.3 22.78 91.98 22.78 91.98 50.91 85.13 50.91 73.09 35.48 73.09 50.91 65.41 50.91 65.41 22.78"/>
  <polygon class="cls-1" points="14.21 22.78 22 22.78 22 44.08 35.63 44.08 35.63 50.91 14.21 50.91 14.21 22.78"/>
  <polygon class="cls-1" points="39.81 88.72 32.01 88.72 32.01 78.03 22 78.03 22 88.72 14.21 88.72 14.21 60.59 22 60.59 22 71.11 32.01 71.11 32.01 60.59 39.81 60.59 39.81 88.72"/>
  <path class="cls-1" d="M37.5,44.3c-.6-1.62-.9-3.53-.9-5.73v-15.79h7.96v15.63c0,2.04.46,3.54,1.4,4.52.93.98,2.18,1.47,3.75,1.47s2.82-.47,3.75-1.41c.93-.94,1.4-2.4,1.4-4.38v-15.83h7.96v15.59c0,2.28-.32,4.24-.94,5.89-.63,1.65-1.51,3-2.65,4.06-1.14,1.06-2.52,1.84-4.14,2.35-1.62.51-3.44.76-5.45.76s-3.82-.25-5.43-.76c-1.61-.51-2.97-1.29-4.1-2.35-1.12-1.06-1.99-2.4-2.59-4.02Z"/>
  <path class="cls-1" d="M68.62,76.18c0,2.28-.32,4.24-.94,5.89-.63,1.65-1.51,3-2.65,4.06-1.14,1.06-2.52,1.84-4.14,2.35-1.62.51-3.44.76-5.45.76s-3.82-.25-5.43-.76c-1.61-.51-2.97-1.29-4.1-2.35-1.12-1.06-1.99-2.4-2.59-4.02-.6-1.62-.9-3.53-.9-5.73v-15.79h7.96v15.63c0,2.04.46,3.54,1.4,4.52.93.98,2.18,1.47,3.75,1.47s2.82-.47,3.75-1.41c.93-.94,1.4-2.4,1.4-4.38v-15.83h7.96v15.59Z"/>
  <polygon class="cls-1" points="97.8 88.72 90.96 88.72 78.91 73.29 78.91 88.72 71.24 88.72 71.24 60.59 78.53 60.59 90.13 75.46 90.13 60.59 97.8 60.59 97.8 88.72"/>
  <path class="cls-1" d="M95.13,42.73c-.76-1.78-1.15-3.72-1.15-5.81v-.08c0-2.04.38-3.94,1.12-5.73.75-1.78,1.78-3.34,3.09-4.66,1.31-1.33,2.87-2.36,4.68-3.11,1.81-.75,3.78-1.13,5.93-1.13,1.45,0,2.76.14,3.94.42,1.18.28,2.26.68,3.24,1.21.98.52,1.86,1.15,2.65,1.87.79.72,1.49,1.51,2.11,2.37l-5.87,4.54c-.8-1.02-1.69-1.82-2.65-2.41-.96-.59-2.13-.88-3.5-.88-.99,0-1.9.19-2.71.58-.82.39-1.52.92-2.11,1.59-.59.67-1.05,1.46-1.39,2.37-.34.91-.5,1.88-.5,2.89v.08c0,1.04.17,2.03.5,2.95.33.92.8,1.72,1.39,2.39.59.67,1.29,1.2,2.11,1.59.82.39,1.72.58,2.71.58.72,0,1.39-.08,1.99-.24.6-.16,1.15-.39,1.65-.7.5-.31.96-.67,1.41-1.08.44-.42.88-.88,1.31-1.39l5.87,4.18c-.67.91-1.4,1.76-2.19,2.53-.79.78-1.69,1.45-2.69,2.01-1,.56-2.13,1-3.38,1.33-1.25.32-2.65.48-4.2.48-2.01,0-3.9-.36-5.67-1.08-1.77-.72-3.3-1.73-4.6-3.03-1.3-1.3-2.33-2.84-3.09-4.62Z"/>
  <polygon class="cls-1" points="123.89 67.42 115.45 67.42 115.45 88.72 107.65 88.72 107.65 67.42 99.21 67.42 99.21 60.59 123.89 60.59 123.89 67.42"/>
  <polygon class="cls-1" points="147.88 50.91 140.08 50.91 140.08 40.22 130.07 40.22 130.07 50.91 122.28 50.91 122.28 22.78 130.07 22.78 130.07 33.31 140.08 33.31 140.08 22.78 147.88 22.78 147.88 50.91"/>
</svg>